# xmcd
#
# Track frame offsets:
#	150
#	13092
#	27057
#	38545
#	52207
#	63302
#	75472
#	90027
#	99812
#	111695
#	122515
#	134722
#	145960
#	154855
#	168175
#	183162
#	195510
#
# Disc length: 2784
#
# Revision: 1
# Processed by: cddbd v1.5.1PL0 Copyright (c) Steve Scherf et al.
# Submitted via: dBpowerAMP V4.0
# Normalized: r0:TDELIM( - )
#
DISCID=d40ade11
DTITLE=Various Artist - And This Time It's For Real CD 1
DYEAR=1900
DGENRE=soul
TTITLE0=Sugar Pie DeSanto - Soulfull Dress
TTITLE1=Contors - First I Look At The Purse
TTITLE2=Velvelettes - He Was Really Saying Something
TTITLE3=Fontella Bass and Bobby McClure - Don't Mess Up A Good Thing
TTITLE4=Jimmy Castor - Hey Leroy, Your Moma's Calling
TTITLE5=Junior Walker - Cleo's Mood
TTITLE6=Shorty Long - Devil With The Blue Dress On
TTITLE7=Charlie Rich - Mohair Sam
TTITLE8=Dean and Jean - Thread Your Needle
TTITLE9=James Brown - Out Of Sight
TTITLE10=Laura Lee - Uptight Good Woman
TTITLE11=Howard Tate - Ain't Nobody Home
TTITLE12=Solomon Burke - Got To Get You Off My Mind
TTITLE13=Brenda Holloway - Every Little Bit Hurts
TTITLE14=Origianals - Baby I'm For Real
TTITLE15=Jerry Butler - Hey Western Union Man
TTITLE16=Martha and The Vandellas - Nowhere To Run
EXTD=tim1701\n
EXTT0=
EXTT1=
EXTT2=
EXTT3=
EXTT4=
EXTT5=
EXTT6=
EXTT7=
EXTT8=
EXTT9=
EXTT10=
EXTT11=
EXTT12=
EXTT13=
EXTT14=
EXTT15=
EXTT16=
PLAYORDER=
